<svg width="229" height="56" viewBox="0 0 229 56" fill="none" xmlns="http://www.w3.org/2000/svg">
<rect x="2.5" y="2.5" width="224" height="51" rx="10.5" stroke="url(#paint0_linear_207_880)" stroke-width="5"/>
<path d="M56 18.25H36.5C34.85 18.25 33.5 19.6 33.5 21.25V34.75C33.5 36.415 34.85 37.75 36.5 37.75H56C57.665 37.75 59 36.415 59 34.75V21.25C59 19.6 57.665 18.25 56 18.25ZM56 34.75H36.5V23.755L46.25 28.75L56 23.755V34.75ZM46.25 26.215L36.5 21.25H56L46.25 26.215ZM30.5 34.75C30.5 35.005 30.545 35.245 30.575 35.5H24.5C23.672 35.5 23 34.825 23 34C23 33.175 23.672 32.5 24.5 32.5H30.5V34.75ZM27.5 20.5H30.575C30.545 20.755 30.5 20.995 30.5 21.25V23.5H27.5C26.675 23.5 26 22.825 26 22C26 21.175 26.675 20.5 27.5 20.5ZM24.5 28C24.5 27.175 25.175 26.5 26 26.5H30.5V29.5H26C25.175 29.5 24.5 28.825 24.5 28Z" fill="white"/>
<path d="M56 18.25H36.5C34.85 18.25 33.5 19.6 33.5 21.25V34.75C33.5 36.415 34.85 37.75 36.5 37.75H56C57.665 37.75 59 36.415 59 34.75V21.25C59 19.6 57.665 18.25 56 18.25ZM56 34.75H36.5V23.755L46.25 28.75L56 23.755V34.75ZM46.25 26.215L36.5 21.25H56L46.25 26.215ZM30.5 34.75C30.5 35.005 30.545 35.245 30.575 35.5H24.5C23.672 35.5 23 34.825 23 34C23 33.175 23.672 32.5 24.5 32.5H30.5V34.75ZM27.5 20.5H30.575C30.545 20.755 30.5 20.995 30.5 21.25V23.5H27.5C26.675 23.5 26 22.825 26 22C26 21.175 26.675 20.5 27.5 20.5ZM24.5 28C24.5 27.175 25.175 26.5 26 26.5H30.5V29.5H26C25.175 29.5 24.5 28.825 24.5 28Z" fill="white"/>
<path d="M88.9873 30.0474H92.0532C91.9917 31.0522 91.7148 31.9443 91.2227 32.7236C90.7373 33.5029 90.0571 34.1113 89.1821 34.5488C88.314 34.9863 87.2681 35.2051 86.0444 35.2051C85.0874 35.2051 84.2295 35.041 83.4707 34.7129C82.7119 34.3779 82.0625 33.8994 81.5225 33.2773C80.9893 32.6553 80.5825 31.9033 80.3022 31.0215C80.022 30.1396 79.8818 29.1519 79.8818 28.0581V27.0225C79.8818 25.9287 80.0254 24.9409 80.3125 24.0591C80.6064 23.1704 81.0234 22.415 81.5635 21.793C82.1104 21.1709 82.7632 20.6924 83.522 20.3574C84.2808 20.0225 85.1284 19.855 86.0649 19.855C87.3091 19.855 88.3584 20.0806 89.2129 20.5317C90.0742 20.9829 90.7407 21.605 91.2124 22.3979C91.6909 23.1909 91.978 24.0933 92.0737 25.105H88.9976C88.9634 24.5034 88.8438 23.9941 88.6387 23.5771C88.4336 23.1533 88.1226 22.8354 87.7056 22.6235C87.2954 22.4048 86.7485 22.2954 86.0649 22.2954C85.5522 22.2954 85.1045 22.3911 84.7217 22.5825C84.3389 22.7739 84.0176 23.0645 83.7578 23.4541C83.498 23.8438 83.3032 24.3359 83.1733 24.9307C83.0503 25.5186 82.9888 26.209 82.9888 27.002V28.0581C82.9888 28.8306 83.0469 29.5107 83.1631 30.0986C83.2793 30.6797 83.457 31.1719 83.6963 31.5752C83.9424 31.9717 84.2568 32.2725 84.6396 32.4775C85.0293 32.6758 85.4976 32.7749 86.0444 32.7749C86.687 32.7749 87.2168 32.6724 87.6338 32.4673C88.0508 32.2622 88.3687 31.958 88.5874 31.5547C88.813 31.1514 88.9463 30.6489 88.9873 30.0474ZM93.417 29.5654V29.3501C93.417 28.5366 93.5332 27.7881 93.7656 27.1045C93.998 26.4141 94.3364 25.8159 94.7808 25.3101C95.2251 24.8042 95.772 24.4111 96.4214 24.1309C97.0708 23.8438 97.8159 23.7002 98.6567 23.7002C99.4976 23.7002 100.246 23.8438 100.902 24.1309C101.559 24.4111 102.109 24.8042 102.553 25.3101C103.004 25.8159 103.346 26.4141 103.579 27.1045C103.811 27.7881 103.927 28.5366 103.927 29.3501V29.5654C103.927 30.3721 103.811 31.1206 103.579 31.811C103.346 32.4946 103.004 33.0928 102.553 33.6055C102.109 34.1113 101.562 34.5044 100.913 34.7847C100.263 35.0649 99.5181 35.2051 98.6772 35.2051C97.8364 35.2051 97.0879 35.0649 96.4316 34.7847C95.7822 34.5044 95.2319 34.1113 94.7808 33.6055C94.3364 33.0928 93.998 32.4946 93.7656 31.811C93.5332 31.1206 93.417 30.3721 93.417 29.5654ZM96.3701 29.3501V29.5654C96.3701 30.0303 96.4111 30.4644 96.4932 30.8677C96.5752 31.271 96.7051 31.6265 96.8828 31.9341C97.0674 32.2349 97.3066 32.4707 97.6006 32.6416C97.8945 32.8125 98.2534 32.8979 98.6772 32.8979C99.0874 32.8979 99.4395 32.8125 99.7334 32.6416C100.027 32.4707 100.263 32.2349 100.441 31.9341C100.619 31.6265 100.749 31.271 100.831 30.8677C100.919 30.4644 100.964 30.0303 100.964 29.5654V29.3501C100.964 28.8989 100.919 28.4751 100.831 28.0786C100.749 27.6753 100.615 27.3198 100.431 27.0122C100.253 26.6978 100.017 26.4517 99.7231 26.2739C99.4292 26.0962 99.0737 26.0073 98.6567 26.0073C98.2397 26.0073 97.8843 26.0962 97.5903 26.2739C97.3032 26.4517 97.0674 26.6978 96.8828 27.0122C96.7051 27.3198 96.5752 27.6753 96.4932 28.0786C96.4111 28.4751 96.3701 28.8989 96.3701 29.3501ZM108.634 26.2739V35H105.681V23.9053H108.449L108.634 26.2739ZM108.203 29.063H107.403C107.403 28.2427 107.509 27.5044 107.721 26.8481C107.933 26.1851 108.23 25.6211 108.613 25.1562C108.996 24.6846 109.451 24.3257 109.977 24.0796C110.51 23.8267 111.105 23.7002 111.761 23.7002C112.281 23.7002 112.756 23.7754 113.187 23.9258C113.617 24.0762 113.986 24.3154 114.294 24.6436C114.608 24.9717 114.848 25.4058 115.012 25.9458C115.183 26.4858 115.268 27.1455 115.268 27.9248V35H112.294V27.9146C112.294 27.4224 112.226 27.0396 112.089 26.7661C111.953 26.4927 111.751 26.3013 111.484 26.1919C111.225 26.0757 110.903 26.0176 110.521 26.0176C110.124 26.0176 109.779 26.0962 109.485 26.2534C109.198 26.4106 108.958 26.6294 108.767 26.9097C108.583 27.1831 108.442 27.5044 108.347 27.8735C108.251 28.2427 108.203 28.6392 108.203 29.063ZM122.948 23.9053V25.9971H116.488V23.9053H122.948ZM118.088 21.1675H121.041V31.6572C121.041 31.9785 121.082 32.2246 121.164 32.3955C121.253 32.5664 121.383 32.686 121.554 32.7544C121.725 32.8159 121.94 32.8467 122.2 32.8467C122.384 32.8467 122.548 32.8398 122.692 32.8262C122.842 32.8057 122.969 32.7852 123.071 32.7646L123.082 34.9385C122.829 35.0205 122.555 35.0854 122.261 35.1333C121.967 35.1812 121.643 35.2051 121.287 35.2051C120.638 35.2051 120.07 35.0991 119.585 34.8872C119.106 34.6685 118.737 34.3198 118.478 33.8413C118.218 33.3628 118.088 32.7339 118.088 31.9546V21.1675ZM130.618 32.498V27.5557C130.618 27.2002 130.56 26.896 130.444 26.6431C130.328 26.3833 130.146 26.1816 129.9 26.0381C129.661 25.8945 129.35 25.8228 128.967 25.8228C128.639 25.8228 128.355 25.8809 128.116 25.9971C127.877 26.1064 127.692 26.2671 127.562 26.479C127.433 26.6841 127.368 26.9268 127.368 27.207H124.415C124.415 26.7354 124.524 26.2876 124.743 25.8638C124.961 25.4399 125.279 25.0674 125.696 24.7461C126.113 24.418 126.609 24.1616 127.183 23.9771C127.764 23.7925 128.414 23.7002 129.131 23.7002C129.993 23.7002 130.758 23.8438 131.428 24.1309C132.098 24.418 132.625 24.8486 133.007 25.4229C133.397 25.9971 133.592 26.7148 133.592 27.5762V32.3237C133.592 32.9321 133.629 33.4312 133.705 33.8208C133.78 34.2036 133.889 34.5386 134.033 34.8257V35H131.049C130.905 34.6992 130.796 34.3232 130.721 33.8721C130.652 33.4141 130.618 32.9561 130.618 32.498ZM131.008 28.2427L131.028 29.9141H129.377C128.988 29.9141 128.649 29.9585 128.362 30.0474C128.075 30.1362 127.839 30.2627 127.655 30.4268C127.47 30.584 127.333 30.7686 127.245 30.9805C127.163 31.1924 127.122 31.4248 127.122 31.6777C127.122 31.9307 127.18 32.1597 127.296 32.3647C127.412 32.563 127.58 32.7202 127.798 32.8364C128.017 32.9458 128.273 33.0005 128.567 33.0005C129.012 33.0005 129.398 32.9116 129.726 32.7339C130.054 32.5562 130.307 32.3374 130.485 32.0776C130.669 31.8179 130.765 31.5718 130.772 31.3394L131.551 32.5903C131.442 32.8706 131.292 33.1611 131.1 33.4619C130.916 33.7627 130.68 34.0464 130.393 34.313C130.105 34.5728 129.76 34.7881 129.357 34.959C128.954 35.123 128.475 35.2051 127.921 35.2051C127.217 35.2051 126.578 35.0649 126.004 34.7847C125.437 34.4976 124.985 34.1045 124.65 33.6055C124.322 33.0996 124.158 32.5254 124.158 31.8828C124.158 31.3018 124.268 30.7856 124.486 30.3345C124.705 29.8833 125.026 29.5039 125.45 29.1963C125.881 28.8818 126.417 28.646 127.06 28.4888C127.703 28.3247 128.448 28.2427 129.295 28.2427H131.008ZM140.452 32.8979C140.814 32.8979 141.135 32.8296 141.416 32.6929C141.696 32.5493 141.915 32.3511 142.072 32.0981C142.236 31.8384 142.321 31.5342 142.328 31.1855H145.107C145.1 31.9648 144.892 32.6587 144.481 33.2671C144.071 33.8687 143.521 34.3438 142.831 34.6924C142.14 35.0342 141.368 35.2051 140.513 35.2051C139.652 35.2051 138.9 35.0615 138.257 34.7744C137.622 34.4873 137.092 34.0908 136.668 33.585C136.244 33.0723 135.926 32.4775 135.714 31.8008C135.502 31.1172 135.396 30.3857 135.396 29.6064V29.3091C135.396 28.5229 135.502 27.7915 135.714 27.1147C135.926 26.4312 136.244 25.8364 136.668 25.3306C137.092 24.8179 137.622 24.418 138.257 24.1309C138.893 23.8438 139.638 23.7002 140.493 23.7002C141.402 23.7002 142.198 23.8745 142.882 24.2231C143.572 24.5718 144.112 25.0708 144.502 25.7202C144.898 26.3628 145.1 27.125 145.107 28.0068H142.328C142.321 27.6377 142.243 27.3027 142.092 27.002C141.949 26.7012 141.737 26.4619 141.457 26.2842C141.183 26.0996 140.845 26.0073 140.441 26.0073C140.011 26.0073 139.659 26.0996 139.385 26.2842C139.112 26.4619 138.9 26.708 138.75 27.0225C138.599 27.3301 138.493 27.6821 138.432 28.0786C138.377 28.4683 138.35 28.8784 138.35 29.3091V29.6064C138.35 30.0371 138.377 30.4507 138.432 30.8472C138.486 31.2437 138.589 31.5957 138.739 31.9033C138.896 32.2109 139.112 32.4536 139.385 32.6313C139.659 32.8091 140.014 32.8979 140.452 32.8979ZM152.254 23.9053V25.9971H145.794V23.9053H152.254ZM147.394 21.1675H150.347V31.6572C150.347 31.9785 150.388 32.2246 150.47 32.3955C150.559 32.5664 150.688 32.686 150.859 32.7544C151.03 32.8159 151.246 32.8467 151.505 32.8467C151.69 32.8467 151.854 32.8398 151.998 32.8262C152.148 32.8057 152.274 32.7852 152.377 32.7646L152.387 34.9385C152.134 35.0205 151.861 35.0854 151.567 35.1333C151.273 35.1812 150.948 35.2051 150.593 35.2051C149.943 35.2051 149.376 35.0991 148.891 34.8872C148.412 34.6685 148.043 34.3198 147.783 33.8413C147.523 33.3628 147.394 32.7339 147.394 31.9546V21.1675ZM162.118 26.2021V35H159.155V23.9053H161.934L162.118 26.2021ZM161.708 29.063H160.888C160.888 28.2905 160.98 27.5796 161.165 26.9302C161.356 26.2739 161.633 25.7065 161.995 25.228C162.364 24.7427 162.819 24.3667 163.359 24.1001C163.899 23.8335 164.524 23.7002 165.235 23.7002C165.728 23.7002 166.179 23.7754 166.589 23.9258C166.999 24.0693 167.351 24.2983 167.645 24.6128C167.946 24.9204 168.178 25.3237 168.342 25.8228C168.506 26.3149 168.588 26.9062 168.588 27.5967V35H165.635V27.9248C165.635 27.4189 165.567 27.0293 165.43 26.7559C165.293 26.4824 165.099 26.291 164.846 26.1816C164.6 26.0723 164.302 26.0176 163.954 26.0176C163.571 26.0176 163.236 26.0962 162.949 26.2534C162.668 26.4106 162.436 26.6294 162.251 26.9097C162.067 27.1831 161.93 27.5044 161.841 27.8735C161.752 28.2427 161.708 28.6392 161.708 29.063ZM168.312 28.7246L167.255 28.8579C167.255 28.1333 167.344 27.46 167.522 26.8379C167.707 26.2158 167.977 25.6689 168.332 25.1973C168.694 24.7256 169.142 24.3599 169.675 24.1001C170.208 23.8335 170.824 23.7002 171.521 23.7002C172.054 23.7002 172.54 23.7788 172.977 23.936C173.415 24.0864 173.787 24.3291 174.095 24.6641C174.409 24.9922 174.648 25.4229 174.812 25.9561C174.983 26.4893 175.069 27.1421 175.069 27.9146V35H172.105V27.9146C172.105 27.4019 172.037 27.0122 171.9 26.7456C171.771 26.4722 171.579 26.2842 171.326 26.1816C171.08 26.0723 170.786 26.0176 170.444 26.0176C170.089 26.0176 169.778 26.0894 169.511 26.2329C169.245 26.3696 169.022 26.561 168.845 26.8071C168.667 27.0532 168.534 27.3403 168.445 27.6685C168.356 27.9897 168.312 28.3418 168.312 28.7246ZM182.462 35.2051C181.601 35.2051 180.828 35.0684 180.145 34.7949C179.461 34.5146 178.88 34.1284 178.401 33.6362C177.93 33.144 177.567 32.5732 177.314 31.9238C177.062 31.2676 176.935 30.5703 176.935 29.832V29.4219C176.935 28.5811 177.055 27.812 177.294 27.1147C177.533 26.4175 177.875 25.8125 178.319 25.2998C178.771 24.7871 179.317 24.394 179.96 24.1206C180.603 23.8403 181.327 23.7002 182.134 23.7002C182.92 23.7002 183.617 23.8301 184.226 24.0898C184.834 24.3496 185.343 24.7188 185.753 25.1973C186.17 25.6758 186.485 26.25 186.697 26.9199C186.909 27.583 187.015 28.3213 187.015 29.1348V30.3652H178.196V28.3965H184.113V28.1709C184.113 27.7607 184.038 27.395 183.887 27.0737C183.744 26.7456 183.525 26.4858 183.231 26.2944C182.937 26.103 182.561 26.0073 182.103 26.0073C181.713 26.0073 181.378 26.0928 181.098 26.2637C180.818 26.4346 180.589 26.6738 180.411 26.9814C180.24 27.2891 180.11 27.6514 180.021 28.0684C179.939 28.4785 179.898 28.9297 179.898 29.4219V29.832C179.898 30.2764 179.96 30.6865 180.083 31.0625C180.213 31.4385 180.394 31.7632 180.626 32.0366C180.866 32.3101 181.153 32.522 181.488 32.6724C181.83 32.8228 182.216 32.8979 182.646 32.8979C183.18 32.8979 183.675 32.7954 184.133 32.5903C184.598 32.3784 184.998 32.0605 185.333 31.6367L186.769 33.1953C186.536 33.5303 186.218 33.8516 185.815 34.1592C185.418 34.4668 184.94 34.7197 184.379 34.918C183.819 35.1094 183.18 35.2051 182.462 35.2051Z" fill="white"/>
<defs>
<linearGradient id="paint0_linear_207_880" x1="114.5" y1="0" x2="114.5" y2="56" gradientUnits="userSpaceOnUse">
<stop stop-color="#70FF00" stop-opacity="0.55"/>
<stop offset="1" stop-color="white"/>
</linearGradient>
</defs>
</svg>
